<svg width="761" height="520" viewBox="0 0 761 520" fill="none" xmlns="http://www.w3.org/2000/svg">
<path fill-rule="evenodd" clip-rule="evenodd" d="M195 121.629L380.152 373.258L565.303 121.629H593.634L563.333 166.439H664.226L760.303 35.4545L730.669 0H608.636L590.909 25.6061H616.023L635.031 48.2576H125.272L144.28 25.6061H169.394L151.667 0H29.6339L0 35.4545L96.0766 166.439H196.97L166.669 121.629H195ZM230.453 242.273H179.241L229.468 333.372L155.605 242.273H129.999L353.559 520H406.744L630.304 242.273H604.698L530.835 333.372L581.062 242.273H529.85L380.15 445.152L230.453 242.273ZM401.675 160.86L380.448 95.5303L359.222 160.86H290.53L346.103 201.235L324.876 266.565L380.448 226.189L436.021 266.565L414.794 201.235L470.366 160.86H401.675Z" fill="black"/>
</svg>
